<?xml version="1.0" encoding="utf-8"?>
<svg version="1.0" width="290.000000pt" height="268.000000pt" viewBox="0 0 290.000000 268.000000" preserveAspectRatio="xMidYMid meet" xmlns="http://www.w3.org/2000/svg">
  <g transform="translate(0.000000,268.000000) scale(0.100000,-0.100000)" fill="#000000" stroke="none">
    <path d="M1235 2111 c-365 -69 -623 -285 -680 -569 -48 -238 79 -464 359 -636&#10;26 -16 28 -22 23 -60 -3 -22 -28 -86 -56 -141 -28 -55 -51 -108 -51 -117 0&#10;-47 86 -46 186 1 60 28 200 129 241 173 22 23 26 23 105 16 95 -8 275 6 362&#10;28 194 50 326 122 447 243 101 101 150 189 176 316 13 66 14 92 5 152 -44 283&#10;-299 511 -657 590 -112 24 -340 26 -460 4z m474 -126 c108 -26 233 -83 312&#10;-141 214 -156 280 -406 161 -604 -74 -121 -199 -222 -356 -284 -125 -50 -185&#10;-59 -397 -60 -201 -1 -217 -4 -242 -44 -11 -17 -158 -134 -163 -129 -2 1 3 25&#10;11 52 17 56 20 148 5 175 -6 11 -42 38 -80 60 -263 154 -365 403 -256 625 97&#10;196 310 328 605 375 96 15 284 4 400 -25z" style="fill: rgb(255, 255, 255);"/>
    <path d="M2093 822 c-141 -50 -224 -191 -195 -330 41 -194 241 -293 418 -207&#10;172 84 214 311 85 458 -71 80 -207 115 -308 79z m248 -171 c26 -27 29 -36 29&#10;-96 0 -101 -30 -145 -100 -145 -30 0 -80 37 -80 60 0 15 46 12 60 -5 18 -21&#10;36 -19 54 7 20 28 22 58 4 40 -19 -19 -70 -14 -95 10 -33 31 -32 100 2 133 35&#10;36 88 34 126 -4z m-241 -86 c0 -33 2 -35 35 -35 28 0 35 -4 35 -20 0 -16 -7&#10;-20 -35 -20 -33 0 -35 -2 -35 -35 0 -28 -4 -35 -20 -35 -16 0 -20 7 -20 35 0&#10;33 -2 35 -35 35 -28 0 -35 4 -35 20 0 16 7 20 35 20 33 0 35 2 35 35 0 28 4&#10;35 20 35 16 0 20 -7 20 -35z"/>
    <path d="M2248 615 c-13 -30 3 -75 27 -75 8 0 22 11 31 25 15 23 15 27 0 50&#10;-9 14 -23 25 -31 25 -9 0 -21 -11 -27 -25z"/>
  </g>
</svg>