<?xml version="1.0" encoding="utf-8"?>
<svg version="1.1" width="400" height="200" xmlns="http://www.w3.org/2000/svg">
  <text x="101.125" y="59.918" style="fill: rgb(139, 138, 138); font-family: sans-serif; font-size: 54px; white-space: pre;">communifire</text>
  <g transform="matrix(1.682007, 0, 0, 1.682007, 30.898855, -0.247194)" style="">
    <g>
      <rect class="st0" width="48" height="48" style="fill: rgb(255, 102, 0);" x="-16.814" y="0.759"/>
      <g transform="matrix(1, 0, 0, 1, -16.814077, 0.75852)">
        <path class="st1" d="M40.3,32.5l-11.5-6.4c-0.3-0.2-0.7-0.1-1,0.1c-0.3,0.3-0.3,0.7-0.1,1l6.6,11.6c0.2,0.4,0.7,0.5,1.1,0.3 c0.1,0,0.1-0.1,0.2-0.2c0.2-0.3,0.3-0.7,0.1-1l-5.1-9l8.9,4.9c0.4,0.2,0.9,0.1,1.1-0.3C40.9,33.3,40.7,32.7,40.3,32.5z" style="fill: rgb(255, 255, 255);"/>
        <path class="st1" d="M26.1,28.4c-0.1-0.4-0.4-0.6-0.8-0.6c-0.4,0-0.7,0.3-0.8,0.6L21,41.3c-0.1,0.4,0.1,0.9,0.6,1 c0.1,0,0.2,0,0.3,0c0.4,0,0.7-0.3,0.8-0.6l2.7-10l2.8,9.8c0.1,0.4,0.6,0.7,1,0.6c0.4-0.1,0.7-0.6,0.6-1L26.1,28.4z" style="fill: rgb(255, 255, 255);"/>
        <path class="st1" d="M22.9,26.3c-0.3-0.3-0.7-0.3-1-0.1l-11.6,6.6C9.8,33,9.7,33.6,9.9,34c0,0.1,0.1,0.1,0.2,0.2 c0.3,0.2,0.7,0.3,1,0.1l9-5.1L15.2,38c-0.2,0.4-0.1,0.9,0.3,1.1c0.4,0.2,0.9,0.1,1.1-0.3l0,0L23,27.3C23.2,27,23.1,26.6,22.9,26.3 z" style="fill: rgb(255, 255, 255);"/>
        <path class="st1" d="M21.3,24c0-0.4-0.3-0.7-0.6-0.8L7.8,19.7c-0.4-0.1-0.9,0.1-1,0.6c0,0.1,0,0.2,0,0.2c0,0.4,0.3,0.7,0.6,0.8 l10,2.7l-9.8,2.8c-0.4,0.1-0.7,0.6-0.6,1c0.1,0.4,0.6,0.7,1,0.6l12.6-3.7C21.1,24.7,21.3,24.4,21.3,24z" style="fill: rgb(255, 255, 255);"/>
        <path class="st1" d="M10.1,15.3L10.1,15.3l11.5,6.4c0.3,0.2,0.7,0.1,1-0.1s0.3-0.7,0.1-1L16.1,8.8c-0.2-0.4-0.7-0.5-1.1-0.3 c-0.1,0-0.1,0.1-0.2,0.2c-0.2,0.3-0.3,0.7-0.1,1l5.1,9l-8.9-4.9c-0.4-0.2-0.9-0.1-1.1,0.3C9.6,14.5,9.7,15,10.1,15.3z" style="fill: rgb(255, 255, 255);"/>
        <path class="st1" d="M20.9,6.9l3.7,12.6c0.1,0.4,0.4,0.6,0.8,0.6c0.4,0,0.7-0.3,0.8-0.6l3.5-12.9c0.1-0.4-0.1-0.9-0.6-1 c-0.1,0-0.2,0-0.3,0c-0.4,0-0.7,0.3-0.8,0.6l-2.7,10l-2.8-9.8c-0.1-0.4-0.6-0.7-1-0.6C21,6,20.7,6.5,20.9,6.9L20.9,6.9z" style="fill: rgb(255, 255, 255);"/>
        <path class="st1" d="M41.2,13.7c0-0.1-0.1-0.1-0.2-0.2c-0.3-0.2-0.7-0.3-1-0.1l-9,5.1l4.9-8.9c0.2-0.4,0.1-0.9-0.3-1.1 c-0.4-0.2-0.9-0.1-1.1,0.3l-6.4,11.5c-0.2,0.3-0.1,0.7,0.1,1c0.3,0.3,0.7,0.3,1,0.1l11.6-6.6C41.3,14.6,41.4,14.1,41.2,13.7z" style="fill: rgb(255, 255, 255);"/>
      </g>
    </g>
  </g>
</svg>